# xmcd
#
# Track frame offsets:
#   150
#   20998
#   37089
#   59749
#   81256
#   95125
#   113201
#   124976
#   139788
#   174871
#   186733
#   211026
#   235312
#   268246
#   285469
#   317230
#
# Disc length: 4347 seconds
#
# Revision: 0
# Processed by: cddbd v1.5.1PL2 Copyright (c) Steve Scherf et al.
# Submitted via: GXTranscoder 2.0.1939
#
DISCID=0010f910
DTITLE=La Rue Kétanou - Ouvert à Double tour
DYEAR=1900
DGENRE=Blues
TTITLE0=Impossible
TTITLE1=Les maisons
TTITLE2=La fiancée de l'eau
TTITLE3=Les cigales
TTITLE4=Personne n'a le prenom de ma femme
TTITLE5=Qui dit mieux ?
TTITLE6=Les tontons
TTITLE7=La chance
TTITLE8=Altitude
TTITLE9=On s'emmenne
TTITLE10=La misere d'en face
TTITLE11=Mohammed
TTITLE12=Ma faute à toi
TTITLE13=Les hommes que j'aime
TTITLE14=Les mots
TTITLE15=Chagrin d'amour
EXTD=
EXTT0=
EXTT1=
EXTT2=
EXTT3=
EXTT4=
EXTT5=
EXTT6=
EXTT7=
EXTT8=
EXTT9=
EXTT10=
EXTT11=
EXTT12=
EXTT13=
EXTT14=
EXTT15=
PLAYORDER=
